<svg version="1.1" xmlns="http://www.w3.org/2000/svg" xmlns:xlink="http://www.w3.org/1999/xlink" width="149.0196" height="80" viewBox="0,0,149.0196,80"><g transform="translate(-245.4902,-140)"><g data-paper-data="{&quot;isPaintingLayer&quot;:true}" fill-rule="nonzero" stroke="none" stroke-linecap="butt" stroke-linejoin="miter" stroke-miterlimit="10" stroke-dasharray="" stroke-dashoffset="0" style="mix-blend-mode: normal"><path d="M248.72252,215.55556c0,0 -3.23232,-2.02337 -3.23232,-10.90909c0,-15.15057 0,-37.33044 0,-46.46465c0,-7.85905 4.0404,-13.73737 4.0404,-13.73737c0,0 5.68633,-4.44444 14.77495,-4.44444c18.39423,0 85.55404,0 115.55556,0c8.99411,0 12.22445,3.23232 12.22445,3.23232c0,0 2.42424,3.19483 2.42424,12.52525c0,15.92675 0,39.53965 0,48.48485c0,7.02557 -3.63636,11.71717 -3.63636,11.71717c0,0 -2.51769,4.0404 -12.22445,4.0404c-31.58488,0 -100.78544,0 -117.9798,0c-7.57001,0 -11.94667,-4.44444 -11.94667,-4.44444z" fill="#0064ff" stroke-width="0"/><text transform="translate(291.20632,171.69482) scale(0.71984,0.71984)" font-size="40" xml:space="preserve" fill="#ffffff" fill-rule="nonzero" stroke="none" stroke-width="1" stroke-linecap="butt" stroke-linejoin="miter" stroke-miterlimit="10" stroke-dasharray="" stroke-dashoffset="0" font-family="Sans Serif" font-weight="normal" text-anchor="start" style="mix-blend-mode: normal"><tspan x="0" dy="0">训练</tspan><tspan x="0" dy="46.15px">确认</tspan></text></g></g></svg>